<?xml version="1.0" encoding="utf-8"?>
<svg version="1.1" id="Layer_1" xmlns="http://www.w3.org/2000/svg" xmlns:xlink="http://www.w3.org/1999/xlink" x="0px" y="0px"
	 viewBox="0 0 1688 1694.134" enable-background="new 0 0 1688 1694.134" xml:space="preserve">
<g>
	<g>
		<path d="M1359.175,370.311v-4.488c15.125-1.164,15.956-2.493,15.956-14.461V287.37c0-8.643-0.664-9.474-7.978-9.807l-7.979-0.333
			v-3.823c10.638-1.828,20.445-4.986,29.586-8.643v86.598c0,11.967,0.997,13.297,16.123,14.461v4.488H1359.175z"/>
		<path d="M1641.103,825.404c-2.161,6.981-3.823,14.294-5.818,21.774h-62.164v-3.823c9.308-9.142,18.616-18.616,26.927-28.257
			c10.305-12.3,20.777-25.93,20.777-40.224c0-13.962-7.313-22.107-19.614-22.107c-11.302,0-18.283,8.976-22.605,15.458l-3.657-3.324
			l9.474-13.464c4.987-5.485,12.799-9.807,22.44-9.807c14.627,0,27.925,10.638,27.925,28.091c0,14.461-6.649,24.267-21.941,40.557
			l-23.603,24.766h31.082c8.975,0,11.136-0.665,16.123-11.136L1641.103,825.404z"/>
		<path fill="#FF0000" d="M1437.396,1273.973l7.313-10.472c4.654-5.153,12.3-9.308,21.11-9.308c14.959,0,24.766,9.308,24.766,21.941
			c0,4.82-1.995,8.643-5.153,11.801c-2.493,2.66-6.482,5.652-11.302,8.976v0.332c14.627,2.826,23.104,13.131,23.104,25.265
			c0,26.927-31.581,39.227-43.549,39.227c-7.646,0-14.461-3.657-16.621-5.651c-2.327-2.161-2.992-3.989-2.66-5.984
			c0.167-2.161,2.327-4.322,3.823-5.485c1.33-0.997,2.659-1.164,3.99,0c4.321,3.823,11.135,8.477,20.61,8.477
			c11.801,0,20.113-8.809,20.113-25.265c0-15.292-11.635-21.442-21.11-21.442c-3.989,0-7.979,0.997-10.638,1.828l-1.163-4.82
			c15.292-4.821,26.594-11.303,26.594-23.603c0-10.306-6.981-15.625-15.791-15.625c-9.142,0-15.791,6.981-19.946,13.131
			L1437.396,1273.973z"/>
		<path d="M1053.808,1617.481v11.967c0,11.136,0.664,11.967,14.128,13.131v4.488h-42.551v-4.488
			c14.461-1.163,15.125-2.161,15.125-13.131v-11.967h-43.215v-4.654c15.791-23.603,32.744-48.203,49.864-70.808h6.649v67.65h15.956
			v7.812H1053.808z M1040.51,1560.635h-0.332c-10.638,14.793-21.442,30.584-32.412,49.034h32.744V1560.635z"/>
		<path d="M484.707,1555.178c6.316-2.327,14.128-4.986,18.615-4.986c21.276,0,32.08,14.461,32.08,28.09
			c0,9.973-4.654,19.447-14.793,27.758c-8.976,7.314-20.112,11.635-28.921,11.801c-7.646,0-14.628-3.491-17.12-5.817
			c-2.161-2.327-2.992-3.657-2.66-5.652c0.167-1.662,1.663-3.823,3.491-5.485c1.496-1.163,2.826-1.33,4.488,0
			c3.491,3.158,10.306,8.477,20.445,8.477c14.128,0,21.109-12.134,21.109-24.6c0-14.627-8.975-25.098-27.093-25.098
			c-6.981,0-13.297,1.828-17.12,3.325l6.482-50.696h47.371l0.997,1.33l-4.321,10.804h-38.729L484.707,1555.178z"/>
		<path fill="#FF0000" d="M124.682,1172.239c3.657-1.662,7.147-2.826,10.471-2.826c17.785,0,29.918,13.63,29.918,30.75
			c0,19.779-14.128,36.567-34.074,36.567c-19.447,0-34.074-15.957-34.074-41.554c0-36.401,25.264-55.183,42.883-61.666
			c6.649-2.327,14.627-4.155,21.276-5.319l1.163,5.319c-5.485,0.997-11.967,2.992-18.117,5.818
			c-10.139,4.82-25.597,15.291-30.584,38.396L124.682,1172.239z M112.714,1183.375c-0.832,3.158-0.997,7.147-0.997,11.469
			c0,19.946,8.476,36.235,22.106,36.235c12.965,0,16.954-13.962,16.954-24.932c0-13.796-6.981-27.426-22.106-27.426
			C122.355,1178.721,116.703,1181.214,112.714,1183.375z"/>
		<path d="M114.712,623.452c-15.624,33.742-31.082,67.65-47.039,101.89l-12.3,1.662l-1.164-1.828
			c17.453-28.257,36.235-62.663,49.367-91.585H67.674c-10.97,0-11.967,1.496-15.956,12.466h-4.821
			c1.496-9.142,2.327-17.452,2.992-24.6h63.494L114.712,623.452z"/>
		<path d="M419.044,202.097c0,4.82-1.662,9.64-4.82,13.297c-1.164,1.496-5.652,5.485-13.131,10.638
			c11.469,6.482,21.941,14.461,21.941,28.921c0,19.447-18.783,30.085-32.911,30.085c-17.785,0-31.913-10.305-31.913-28.09
			c0-7.646,3.823-12.3,7.48-15.791c2.659-2.493,8.975-6.981,14.627-10.638c-10.804-6.15-17.951-14.128-17.951-25.763
			c0-13.962,11.801-27.26,29.586-27.26C407.742,177.497,419.044,188.633,419.044,202.097z M409.736,259.275
			c0-12.466-11.801-19.613-24.599-26.096c-7.979,5.319-13.63,13.63-13.63,22.771c0,15.292,9.807,23.769,20.278,23.769
			C401.924,279.719,409.736,272.073,409.736,259.275z M374.831,199.936c0,12.3,9.807,17.785,21.608,23.603
			c5.652-4.488,10.139-10.638,10.139-20.611c0-13.962-8.643-20.112-16.289-20.112C380.483,182.816,374.831,191.459,374.831,199.936z
			"/>
		<path fill="#FF0000" d="M934.907,88.621c0,30.583-16.788,52.191-39.227,61.167c-8.976,3.657-19.115,5.319-23.27,5.319
			l-0.831-4.986c23.768-3.989,41.886-20.611,47.371-45.876l-11.136,5.984c-3.657,1.995-6.815,2.66-9.973,2.66
			c-17.619,0-29.753-12.965-29.753-30.418c0-15.957,12.466-35.404,33.908-35.404C922.773,47.067,934.907,66.016,934.907,88.621z
			 M882.383,76.653c0,14.627,8.311,26.761,22.273,26.761c5.818,0,11.469-1.995,14.96-4.654c0.499-3.657,0.664-7.646,0.664-10.97
			c0-14.627-4.321-35.237-20.444-35.237C887.037,52.553,882.383,66.847,882.383,76.653z"/>
	</g>
	<circle fill="none" stroke="#000000" stroke-width="9.6356" stroke-miterlimit="10" cx="844" cy="866.338" r="691.96"/>
	<polygon fill="none" stroke="#000000" stroke-width="9.6356" stroke-miterlimit="10" points="1326.449,370.311 1532.26,794.405 
		1027.077,1535.052 423.034,317.538 170.757,705.866 531.081,1483.656 	"/>
	<g>
		<g>
			
				<line fill="none" stroke="#FF0000" stroke-width="9.6356" stroke-linecap="round" stroke-linejoin="round" x1="255.872" y1="1231.079" x2="255.898" y2="1231.036"/>
			
				<line fill="none" stroke="#FF0000" stroke-width="9.6356" stroke-linecap="round" stroke-linejoin="round" stroke-dasharray="0.1001,30.0359" x1="271.589" y1="1205.425" x2="893.46" y2="190.345"/>
			<polyline fill="none" stroke="#FF0000" stroke-width="9.6356" stroke-linecap="round" stroke-linejoin="round" points="
				901.305,177.539 901.331,177.497 901.353,177.541 			"/>
			
				<line fill="none" stroke="#FF0000" stroke-width="9.6356" stroke-linecap="round" stroke-linejoin="round" stroke-dasharray="0.1008,30.2376" x1="914.828" y1="204.611" x2="1421.813" y2="1223.151"/>
			
				<line fill="none" stroke="#FF0000" stroke-width="9.6356" stroke-linecap="round" stroke-linejoin="round" x1="1428.55" y1="1236.685" x2="1428.572" y2="1236.73"/>
		</g>
	</g>
</g>
</svg>
